<svg xmlns="http://www.w3.org/2000/svg" viewBox="0 0 64 64" role="img" aria-label="icmprut">
  <rect width="64" height="64" rx="14" fill="#050505"/>
  <circle cx="32" cy="27" r="12" fill="#e7e7e7"/>
  <circle cx="27.5" cy="24.5" r="2" fill="#050505"/>
  <circle cx="36.5" cy="24.5" r="2" fill="#050505"/>
  <path d="M20 36c-7 2-10 6-11 12" fill="none" stroke="#cfcfcf" stroke-width="4" stroke-linecap="round"/>
  <path d="M26 38c-5 5-6 10-5 16" fill="none" stroke="#cfcfcf" stroke-width="4" stroke-linecap="round"/>
  <path d="M32 39c-1 5-1 10 0 16" fill="none" stroke="#cfcfcf" stroke-width="4" stroke-linecap="round"/>
  <path d="M38 38c5 5 6 10 5 16" fill="none" stroke="#cfcfcf" stroke-width="4" stroke-linecap="round"/>
  <path d="M44 36c7 2 10 6 11 12" fill="none" stroke="#cfcfcf" stroke-width="4" stroke-linecap="round"/>
  <path d="M20 31c-6-2-10-5-12-10" fill="none" stroke="#8f8f8f" stroke-width="4" stroke-linecap="round"/>
  <path d="M44 31c6-2 10-5 12-10" fill="none" stroke="#8f8f8f" stroke-width="4" stroke-linecap="round"/>
</svg>
